<svg id="visual" viewBox="0 0 900 600" width="1920" height="1280" xmlns="http://www.w3.org/2000/svg" xmlns:xlink="http://www.w3.org/1999/xlink" version="1.1"><path d="M0 79L16.7 81C33.3 83 66.7 87 100 86C133.3 85 166.7 79 200 74C233.3 69 266.7 65 300 68C333.3 71 366.7 81 400 84C433.3 87 466.7 83 500 76C533.3 69 566.7 59 600 61C633.3 63 666.7 77 700 84C733.3 91 766.7 91 800 91C833.3 91 866.7 91 883.3 91L900 91L900 0L883.3 0C866.7 0 833.3 0 800 0C766.7 0 733.3 0 700 0C666.7 0 633.3 0 600 0C566.7 0 533.3 0 500 0C466.7 0 433.3 0 400 0C366.7 0 333.3 0 300 0C266.7 0 233.3 0 200 0C166.7 0 133.3 0 100 0C66.7 0 33.3 0 16.7 0L0 0Z" fill="#fbb2b9"></path><path d="M0 217L16.7 213C33.3 209 66.7 201 100 199C133.3 197 166.7 201 200 192C233.3 183 266.7 161 300 156C333.3 151 366.7 163 400 175C433.3 187 466.7 199 500 195C533.3 191 566.7 171 600 166C633.3 161 666.7 171 700 181C733.3 191 766.7 201 800 202C833.3 203 866.7 195 883.3 191L900 187L900 89L883.3 89C866.7 89 833.3 89 800 89C766.7 89 733.3 89 700 82C666.7 75 633.3 61 600 59C566.7 57 533.3 67 500 74C466.7 81 433.3 85 400 82C366.7 79 333.3 69 300 66C266.7 63 233.3 67 200 72C166.7 77 133.3 83 100 84C66.7 85 33.3 81 16.7 79L0 77Z" fill="#f8a0a7"></path><path d="M0 295L16.7 294C33.3 293 66.7 291 100 287C133.3 283 166.7 277 200 266C233.3 255 266.7 239 300 235C333.3 231 366.7 239 400 249C433.3 259 466.7 271 500 265C533.3 259 566.7 235 600 231C633.3 227 666.7 243 700 257C733.3 271 766.7 283 800 283C833.3 283 866.7 271 883.3 265L900 259L900 185L883.3 189C866.7 193 833.3 201 800 200C766.7 199 733.3 189 700 179C666.7 169 633.3 159 600 164C566.7 169 533.3 189 500 193C466.7 197 433.3 185 400 173C366.7 161 333.3 149 300 154C266.7 159 233.3 181 200 190C166.7 199 133.3 195 100 197C66.7 199 33.3 207 16.7 211L0 215Z" fill="#f58e95"></path><path d="M0 415L16.7 425C33.3 435 66.7 455 100 462C133.3 469 166.7 463 200 447C233.3 431 266.7 405 300 401C333.3 397 366.7 415 400 429C433.3 443 466.7 453 500 456C533.3 459 566.7 455 600 442C633.3 429 666.7 407 700 412C733.3 417 766.7 449 800 460C833.3 471 866.7 461 883.3 456L900 451L900 257L883.3 263C866.7 269 833.3 281 800 281C766.7 281 733.3 269 700 255C666.7 241 633.3 225 600 229C566.7 233 533.3 257 500 263C466.7 269 433.3 257 400 247C366.7 237 333.3 229 300 233C266.7 237 233.3 253 200 264C166.7 275 133.3 281 100 285C66.7 289 33.3 291 16.7 292L0 293Z" fill="#ec7c81"></path><path d="M0 601L16.7 601C33.3 601 66.7 601 100 601C133.3 601 166.7 601 200 601C233.3 601 266.7 601 300 601C333.3 601 366.7 601 400 601C433.3 601 466.7 601 500 601C533.3 601 566.7 601 600 601C633.3 601 666.7 601 700 601C733.3 601 766.7 601 800 601C833.3 601 866.7 601 883.3 601L900 601L900 449L883.3 454C866.7 459 833.3 469 800 458C766.7 447 733.3 415 700 410C666.7 405 633.3 427 600 440C566.7 453 533.3 457 500 454C466.7 451 433.3 441 400 427C366.7 413 333.3 395 300 399C266.7 403 233.3 429 200 445C166.7 461 133.3 467 100 460C66.7 453 33.3 433 16.7 423L0 413Z" fill="#e2696d"></path></svg>